<svg xmlns="http://www.w3.org/2000/svg" viewBox="0 0 16 16">
  <path fill="#5BB8F5" d="M 8.70 4.67 Q 8.47 5.81 9.63 7.47 Q 7.45 8.48 8.29 6.42 Z"/>
  <path fill="#5BB8F5" d="M 5.85 4.14 Q 5.65 5.29 3.98 6.42 Q 5.55 8.07 5.51 5.82 Z"/>
  <path fill="#5BB8F5" d="M 7.95 11.59 Q 7.50 13.48 9.38 15.30 Q 9.91 14.25 9.16 12.44 Q 10.97 13.20 12.02 12.66 Q 10.19 10.79 8.30 11.24 Z"/>
  <path fill="#5BB8F5" d="M 6.12 2.16 C 6.10 2.34 6.11 2.27 6.11 2.32 C 6.10 2.38 6.10 2.43 6.09 2.48 C 6.08 2.54 6.08 2.59 6.07 2.64 C 6.06 2.69 6.05 2.74 6.04 2.80 C 6.03 2.85 6.02 2.90 6.01 2.95 C 6.00 3.01 5.99 3.06 5.98 3.11 C 5.96 3.16 5.95 3.22 5.94 3.27 C 5.93 3.33 5.91 3.38 5.90 3.44 C 5.89 3.49 5.87 3.55 5.86 3.61 C 5.84 3.66 5.83 3.72 5.82 3.78 C 5.80 3.84 5.79 3.90 5.77 3.96 C 5.76 4.02 5.74 4.08 5.72 4.14 C 5.71 4.21 5.69 4.27 5.68 4.33 C 5.66 4.40 5.65 4.46 5.63 4.53 C 5.62 4.60 5.60 4.66 5.59 4.73 C 5.57 4.80 5.56 4.87 5.54 4.94 C 5.53 5.01 5.51 5.08 5.50 5.16 C 5.48 5.23 5.47 5.30 5.46 5.38 C 5.44 5.45 5.43 5.53 5.42 5.60 C 5.41 5.68 5.40 5.76 5.39 5.84 C 5.37 5.92 5.37 5.99 5.36 6.08 C 5.35 6.16 5.34 6.24 5.33 6.32 C 5.33 6.40 5.32 6.48 5.32 6.57 C 5.31 6.65 5.31 6.74 5.31 6.82 C 5.31 6.91 5.31 6.99 5.31 7.08 C 5.31 7.16 5.31 7.25 5.32 7.34 C 5.33 7.43 5.33 7.51 5.34 7.60 C 5.35 7.69 5.36 7.78 5.37 7.87 C 5.39 7.96 5.40 8.05 5.42 8.14 C 5.44 8.22 5.46 8.31 5.48 8.40 C 5.50 8.49 5.53 8.58 5.56 8.67 C 5.58 8.76 5.61 8.85 5.65 8.93 C 5.68 9.02 5.71 9.11 5.75 9.19 C 5.79 9.28 5.83 9.37 5.87 9.45 C 5.92 9.53 5.96 9.62 6.01 9.70 C 6.06 9.78 6.11 9.86 6.17 9.94 C 6.22 10.02 6.28 10.10 6.34 10.18 C 6.40 10.25 6.46 10.33 6.52 10.40 C 6.59 10.48 6.65 10.55 6.72 10.62 C 6.79 10.69 6.87 10.76 6.94 10.83 C 7.01 10.90 7.09 10.97 7.17 11.03 C 7.25 11.10 7.33 11.16 7.42 11.22 C 7.50 11.29 7.59 11.35 7.68 11.41 C 7.77 11.47 7.85 11.62 7.95 11.59 C 8.06 11.56 8.27 11.34 8.30 11.24 C 8.34 11.13 8.20 11.06 8.16 10.97 C 8.11 10.88 8.07 10.80 8.03 10.71 C 7.99 10.63 7.96 10.55 7.93 10.47 C 7.90 10.38 7.87 10.30 7.85 10.22 C 7.83 10.15 7.81 10.07 7.79 9.99 C 7.77 9.92 7.76 9.84 7.75 9.77 C 7.73 9.70 7.72 9.63 7.72 9.56 C 7.71 9.49 7.71 9.42 7.70 9.35 C 7.70 9.28 7.70 9.22 7.70 9.16 C 7.71 9.09 7.71 9.03 7.71 8.97 C 7.72 8.91 7.73 8.84 7.73 8.78 C 7.74 8.73 7.75 8.67 7.76 8.61 C 7.77 8.55 7.78 8.49 7.80 8.44 C 7.81 8.38 7.82 8.32 7.83 8.27 C 7.85 8.21 7.86 8.15 7.88 8.10 C 7.89 8.04 7.91 7.98 7.93 7.93 C 7.94 7.87 7.96 7.82 7.98 7.76 C 8.00 7.70 8.01 7.64 8.03 7.59 C 8.05 7.53 8.07 7.47 8.09 7.41 C 8.11 7.36 8.13 7.30 8.15 7.24 C 8.17 7.18 8.19 7.12 8.21 7.06 C 8.23 6.99 8.25 6.93 8.27 6.87 C 8.29 6.81 8.31 6.74 8.33 6.68 C 8.35 6.62 8.37 6.55 8.39 6.49 C 8.41 6.42 8.44 6.35 8.46 6.28 C 8.48 6.22 8.50 6.15 8.52 6.08 C 8.54 6.01 8.56 5.94 8.57 5.87 C 8.59 5.80 8.61 5.72 8.63 5.65 C 8.65 5.58 8.67 5.50 8.68 5.43 C 8.70 5.35 8.72 5.28 8.73 5.20 C 8.75 5.12 8.76 5.04 8.78 4.96 C 8.79 4.88 8.80 4.80 8.81 4.72 C 8.83 4.64 8.84 4.56 8.85 4.48 C 8.85 4.39 8.86 4.31 8.87 4.22 C 8.88 4.14 8.88 4.05 8.88 3.97 C 8.89 3.88 8.89 3.79 8.89 3.70 C 8.89 3.62 8.88 3.53 8.88 3.44 C 8.87 3.35 8.87 3.26 8.86 3.17 C 8.85 3.08 8.84 2.99 8.83 2.90 C 8.81 2.81 8.80 2.71 8.78 2.62 C 8.76 2.53 8.74 2.44 8.71 2.35 C 8.69 2.26 8.66 2.17 8.63 2.07 C 8.60 1.98 8.57 1.89 8.53 1.80 C 8.50 1.71 8.53 1.70 8.42 1.54 C 8.30 1.37 8.10 0.95 7.86 0.81 C 7.61 0.68 7.23 0.63 6.95 0.70 C 6.68 0.77 6.37 1.01 6.23 1.26 C 6.09 1.50 6.14 1.98 6.12 2.16 Z"/>
</svg>
